<svg width="18" height="18" viewBox="0 0 18 18" fill="none" xmlns="http://www.w3.org/2000/svg">
<path d="M0.336839 15.8942C-0.0536858 16.2847 -0.0536858 16.9179 0.336839 17.3084C0.727363 17.6989 1.36053 17.6989 1.75105 17.3084L0.336839 15.8942ZM17.2467 1.39852C17.2467 0.846238 16.799 0.398523 16.2467 0.398522L7.24674 0.398523C6.69446 0.398523 6.24674 0.846238 6.24674 1.39852C6.24674 1.95081 6.69446 2.39852 7.24674 2.39852L15.2467 2.39852L15.2467 10.3985C15.2467 10.9508 15.6945 11.3985 16.2467 11.3985C16.799 11.3985 17.2467 10.9508 17.2467 10.3985L17.2467 1.39852ZM1.75105 17.3084L16.9538 2.10563L15.5396 0.691416L0.336839 15.8942L1.75105 17.3084Z" fill="black"/>
</svg>
