<svg xmlns="http://www.w3.org/2000/svg" width="17" height="15.067" viewBox="0 0 17 15.067">
  <g id="SVGRepo_iconCarrier" transform="translate(0.5 -28.001)">
    <g id="Group_1" data-name="Group 1" transform="translate(0 28.501)">
      <path id="Path_1" data-name="Path 1" d="M14.708,29.807a4.43,4.43,0,0,0-6.265,0l-.438.438L7.561,29.8A4.426,4.426,0,0,0,1.3,29.8,4.426,4.426,0,0,0,1.3,36.062l6.37,6.37a.455.455,0,0,0,.644,0l6.384-6.36a4.438,4.438,0,0,0,.007-6.268Zm-.651,5.621L8,41.465,1.947,35.417a3.511,3.511,0,1,1,4.966-4.966l.767.767a.457.457,0,0,0,.648,0l.76-.76a3.514,3.514,0,0,1,4.969,4.969Z" transform="translate(0 -28.501)" fill="#fff" stroke="#fff" stroke-width="1"/>
    </g>
  </g>
</svg>
