<svg width="24" height="24" viewBox="0 0 24 24" fill="none" xmlns="http://www.w3.org/2000/svg">
<path fill-rule="evenodd" clip-rule="evenodd" d="M3 7.79998C3 6.10998 3 5.26998 3.32 4.62998C3.6 4.05998 4.06 3.59998 4.63 3.30998C5.27 2.97998 6.11 2.97998 7.79 2.97998H16.19C17.87 2.97998 18.71 2.97998 19.35 3.29998C19.91 3.57998 20.37 4.03998 20.66 4.60998C20.98 5.24998 20.98 6.08998 20.98 7.76998V16.17C20.98 17.85 20.98 18.69 20.65 19.33C20.36 19.89 19.9 20.35 19.33 20.64C18.68 20.96 17.84 20.96 16.16 20.96H7.76C6.07 20.96 5.23 20.96 4.59 20.63C4.02 20.34 3.56 19.88 3.27 19.31C2.94 18.66 2.94 17.82 2.94 16.14V7.73998L3 7.79998ZM7 12C7 11.44 7.44 11 8 11C8.55 11 9 11.44 9 12V16C9 16.55 8.55 17 8 17C7.44 17 7 16.55 7 16V12ZM8 8.99998C8.55 8.99998 9 8.54998 9 7.99998C9 7.43998 8.55 6.99998 8 6.99998C7.44 6.99998 7 7.43998 7 7.99998C7 8.54998 7.44 8.99998 8 8.99998ZM14 13C13.44 13 13 13.44 13 14V16C13 16.55 12.55 17 12 17C11.44 17 11 16.55 11 16V14V12C11 11.44 11.44 11 12 11C12.27 11 12.52 11.11 12.7 11.29C13.09 11.1 13.53 10.99 13.99 10.99C15.64 10.99 16.99 12.33 16.99 13.99V15.99C16.99 16.54 16.54 16.99 15.99 16.99C15.43 16.99 14.99 16.54 14.99 15.99V13.99C14.99 13.43 14.54 12.99 13.99 12.99L14 13Z" fill="black"/>
</svg>
