<svg width="24" height="24" viewBox="0 0 24 24" fill="none" xmlns="http://www.w3.org/2000/svg">
<path fill-rule="evenodd" clip-rule="evenodd" d="M19.99 7.99996C19.99 7.98996 19.99 7.98996 19.99 7.98996C19.99 7.97996 19.99 7.97996 19.99 7.97996L21.86 5.94996C22.16 5.61996 21.89 5.07996 21.44 5.13996L19.09 5.44996C18.35 4.53996 17.23 3.95996 15.97 3.95996C13.76 3.95996 11.97 5.74996 11.97 7.95996C11.97 8.47996 12.07 8.98996 12.25 9.44996C9.25001 9.36996 6.04001 8.77996 4.42001 5.56996C4.21001 5.16996 3.64001 5.13996 3.51001 5.56996C2.33001 9.48996 4.40001 14.58 8.95001 15.94C7.81001 17.05 4.89001 17.35 2.50001 17.13C2.03001 17.08 1.74001 17.61 2.10001 17.91C4.10001 19.56 6.87001 19.93 9.43001 19.93C15.92 19.93 20.42 14.43 19.93 7.92996L19.99 7.99996Z" fill="black"/>
</svg>
